<svg width="24" height="24" viewBox="0 0 24 24" fill="none" xmlns="http://www.w3.org/2000/svg">
<g clip-path="url(#clip0_507_15017)">
<path d="M3.48 2.99973C1.32 5.15973 0 8.12973 0 11.4297C0 14.7297 1.29 17.7897 3.48 19.9497L5.64 17.7897C4.02 16.1697 3 13.9197 3 11.3997C3 8.90973 3.99 6.74973 5.64 5.12973L3.48 2.96973V2.99973ZM20.55 2.99973L18.39 5.15973C20.01 6.77973 21.03 8.93973 21.03 11.4297C21.03 13.9197 20.04 16.1697 18.39 17.8197L20.55 19.9797C22.71 17.8197 24.03 14.7597 24.03 11.4597C24.03 8.15973 22.74 5.18973 20.55 3.02973V2.99973ZM7.8 7.22973C6.72 8.30973 6.03 9.80973 6.03 11.4597C6.03 13.1097 6.72 14.6997 7.8 15.7797L9.87 13.6197C9.33 13.0797 9.03 12.2997 9.03 11.4597C9.03 10.6197 9.33 9.95973 9.87 9.38973L7.8 7.22973V7.22973ZM16.23 7.22973L14.16 9.38973C14.7 9.92973 15 10.6197 15 11.4597C15 12.2997 14.7 13.0797 14.16 13.6197L16.23 15.7797C17.31 14.6997 18 13.1097 18 11.4597C18 9.80973 17.31 8.30973 16.23 7.22973Z" />
</g>
<defs>
<clipPath id="clip0_507_15017">
<rect width="24" height="24" rx="2" />
</clipPath>
</defs>
</svg>
