<svg width="24" height="24" viewBox="0 0 24 24" fill="none" xmlns="http://www.w3.org/2000/svg">
<g clip-path="url(#clip0_507_15062)">
<path d="M0 0C0 0 0 0 0 0V2C0 2.55228 0.460113 2.98393 0.981561 3.16589C2.15336 3.5748 3 4.69333 3 6V18C3 19.3067 2.15336 20.4252 0.981561 20.8341C0.460113 21.0161 0 21.4477 0 22V23C0 23.5523 0.447715 24 1 24H16.5C20.64 24 24 20.64 24 16.5C24 13.9508 22.722 11.7265 20.7733 10.3794C20.2428 10.0126 20.0687 9.26359 20.3578 8.68707C20.7639 7.87715 21 6.95941 21 6C21 2.7 18.33 0 15 0H0V0ZM9 4C9 3.44772 9.44772 3 10 3H12C13.65 3 15 4.35 15 6C15 7.65 13.65 9 12 9H10C9.44772 9 9 8.55228 9 8V4ZM9 13C9 12.4477 9.44772 12 10 12H13.5C15.99 12 18 14.01 18 16.5C18 18.99 15.99 21 13.5 21H10C9.44772 21 9 20.5523 9 20V13Z" />
</g>
<defs>
<clipPath id="clip0_507_15062">
<rect width="24" height="24" rx="2" />
</clipPath>
</defs>
</svg>
