<svg width="24" height="24" viewBox="0 0 24 24" fill="none" xmlns="http://www.w3.org/2000/svg">
<g clip-path="url(#clip0_507_15052)">
<path d="M1.49997 0C0.671544 0 -2.92975e-05 0.671573 -2.92975e-05 1.5V1.5C-2.92975e-05 2.32843 0.671544 3 1.49997 3H22.5C23.3284 3 24 2.32843 24 1.5V1.5C24 0.671573 23.3284 0 22.5 0H1.49997ZM-0.0300293 6C-0.0134608 6 -2.92975e-05 6.01343 -2.92975e-05 6.03V23.73C-2.92975e-05 23.88 0.119971 24 0.269971 24H23.7C23.85 24 23.97 23.88 23.97 23.73V8C23.97 6.89543 23.0745 6 21.97 6H16.605C15.7517 6 15.06 6.69172 15.06 7.545V7.545C15.06 8.39828 14.3683 9.09 13.515 9.09H10.515C9.66169 9.09 8.96997 8.39828 8.96997 7.545V7.545C8.96997 6.69172 8.27825 6 7.42497 6H-0.0300293V6Z" />
</g>
<defs>
<clipPath id="clip0_507_15052">
<rect width="24" height="24" rx="2" />
</clipPath>
</defs>
</svg>
