<svg width="24" height="24" viewBox="0 0 24 24" fill="none" xmlns="http://www.w3.org/2000/svg">
<path d="M22.32 0.0745703C22.32 0.0828546 22.3133 0.0894964 22.305 0.090153C22.2326 0.095909 22.2015 0.142997 22.1529 0.172471C22.1445 0.177527 22.136 0.182407 22.1281 0.188055L10.89 8.15957C10.77 8.24957 10.59 8.48957 10.5 8.63957V8.63957C10.2963 9.03145 10.4964 9.51047 10.8982 9.6938C12.4149 10.3858 13.6138 11.5847 14.3058 13.1014C14.4891 13.5032 14.9682 13.7033 15.36 13.4996V13.4996C15.51 13.4096 15.72 13.2596 15.84 13.1096L23.82 1.85957C23.91 1.70957 23.94 1.58957 23.82 1.46957L22.5 0.14957C22.445 0.0945642 22.39 0.0647721 22.335 0.0601938C22.3268 0.0595067 22.32 0.066286 22.32 0.0745703V0.0745703ZM7.99503 11.9846C7.98543 11.9942 7.97226 11.9996 7.95868 11.9996C5.74908 12.0113 4.05003 13.8366 4.05003 16.0196C4.05003 18.3595 3.02586 20.4573 1.43232 21.917C0.862598 22.4388 0.894173 23.4051 1.63519 23.6237C2.40358 23.8505 3.22184 23.9696 4.05003 23.9696C8.46003 23.9696 12.03 20.4296 12.03 15.9896C12.03 13.7768 10.2119 11.9813 8.03134 11.9696C8.01776 11.9696 8.00463 11.975 7.99503 11.9846V11.9846Z" />
</svg>
