<svg width="24" height="24" viewBox="0 0 24 24" fill="none" xmlns="http://www.w3.org/2000/svg">
<path d="M6.53518 3C6.20083 3 5.8886 3.1671 5.70313 3.4453L0.3698 11.4453C0.145868 11.7812 0.145867 12.2188 0.3698 12.5547L5.70313 20.5547C5.8886 20.8329 6.20083 21 6.53518 21H23C23.5523 21 24 20.5523 24 20V4C24 3.44772 23.5523 3 23 3H6.53518ZM9.79289 6.04711C10.1834 5.65658 10.8166 5.65658 11.2071 6.04711L14.2929 9.13289C14.6834 9.52342 15.3166 9.52342 15.7071 9.13289L18.7929 6.04711C19.1834 5.65658 19.8166 5.65658 20.2071 6.04711L20.9529 6.79289C21.3434 7.18342 21.3434 7.81658 20.9529 8.20711L17.8671 11.2929C17.4766 11.6834 17.4766 12.3166 17.8671 12.7071L20.9529 15.7929C21.3434 16.1834 21.3434 16.8166 20.9529 17.2071L20.2071 17.9529C19.8166 18.3434 19.1834 18.3434 18.7929 17.9529L15.7071 14.8671C15.3166 14.4766 14.6834 14.4766 14.2929 14.8671L11.2071 17.9529C10.8166 18.3434 10.1834 18.3434 9.79289 17.9529L9.04711 17.2071C8.65658 16.8166 8.65658 16.1834 9.04711 15.7929L12.1329 12.7071C12.5234 12.3166 12.5234 11.6834 12.1329 11.2929L9.04711 8.20711C8.65658 7.81658 8.65658 7.18342 9.04711 6.79289L9.79289 6.04711Z" />
</svg>
