<svg width="24" height="24" viewBox="0 0 24 24" fill="none" xmlns="http://www.w3.org/2000/svg">
<g clip-path="url(#clip0_507_14955)">
<path d="M10.0305 0V2C10.0305 2.55228 9.58277 3 9.03049 3H7.78049C5.74049 3 4.03049 4.71 4.03049 6.75V8.25C4.03049 10.29 5.35049 11.97 7.30049 12.48L14.9805 14.46C15.4005 14.58 16.0005 15.33 16.0005 15.78V17.28C16.0005 17.7 15.6705 18.03 15.2505 18.03H7.75049C7.69494 18.03 7.64153 18.0271 7.59048 18.0221C7.21355 17.9848 7.00049 17.6107 7.00049 17.232V16.03C7.00049 15.4777 6.55277 15.03 6.00049 15.03H5.00049C4.4482 15.03 4.00049 15.4777 4.00049 16.03V18.03C4.00049 19.05 4.60049 19.92 5.32049 20.37C6.01049 20.85 6.88049 21.03 7.75049 21.03H9.00049C9.55277 21.03 10.0005 21.4777 10.0005 22.03V23.03C10.0005 23.5823 10.4482 24.03 11.0005 24.03H12.0005C12.5528 24.03 13.0005 23.5823 13.0005 23.03V22.03C13.0005 21.4777 13.4482 21.03 14.0005 21.03H15.2505C17.3205 21.03 19.0005 19.35 19.0005 17.28V15.78C19.0005 13.74 17.6805 12.06 15.7305 11.55L8.05049 9.57C7.63049 9.45 7.03049 8.7 7.03049 8.25V6.75C7.03049 6.33 7.36049 6 7.78049 6H15.2805C15.3346 6 15.3879 6.00322 15.4397 6.00888C15.8162 6.04997 16.0305 6.41926 16.0305 6.79803V8C16.0305 8.55228 16.4782 9 17.0305 9H18.0305C18.5828 9 19.0305 8.55228 19.0305 8V6C19.0305 4.98 18.4305 4.11 17.7105 3.66C17.0205 3.18 16.1505 3 15.2805 3H14.0305C13.4782 3 13.0305 2.55228 13.0305 2V1C13.0305 0.447715 12.5828 0 12.0305 0H10.0305C10.0305 0 10.0305 0 10.0305 0V0Z" />
</g>
<defs>
<clipPath id="clip0_507_14955">
<rect width="24" height="24" rx="2" />
</clipPath>
</defs>
</svg>
