<svg width="24" height="24" viewBox="0 0 24 24" fill="none" xmlns="http://www.w3.org/2000/svg">
<g clip-path="url(#clip0_507_14949)">
<path d="M13.5617 1.95217C12.7611 0.951361 11.2389 0.951359 10.4383 1.95217L2.59951 11.7506C1.55189 13.0601 2.48424 15 4.16125 15H19.8388C21.5158 15 22.4481 13.0601 21.4005 11.7506L13.5617 1.95217ZM2 18C0.89543 18 0 18.8954 0 20V22C0 23.1046 0.895431 24 2 24H22C23.1046 24 24 23.1046 24 22V20C24 18.8954 23.1046 18 22 18H2Z" />
</g>
<defs>
<clipPath id="clip0_507_14949">
<rect width="24" height="24" rx="2" />
</clipPath>
</defs>
</svg>
