<svg width="24" height="24" viewBox="0 0 24 24" fill="none" xmlns="http://www.w3.org/2000/svg">
<path d="M12.09 3C4.5 3 0 12 0 12C0 12 4.5 21 12.09 21C19.5 21 24 12 24 12C24 12 19.5 3 12.09 3ZM12 6C15.33 6 18 8.7 18 12C18 15.33 15.33 18 12 18C8.7 18 6 15.33 6 12C6 8.7 8.7 6 12 6ZM12 9C10.35 9 9 10.35 9 12C9 13.65 10.35 15 12 15C13.65 15 15 13.65 15 12C15 11.7 14.88 11.43 14.82 11.16C14.58 11.64 14.1 12 13.5 12C12.66 12 12 11.34 12 10.5C12 9.9 12.36 9.42 12.84 9.18C12.57 9.09 12.3 9 12 9Z" />
</svg>
