<svg width="24" height="24" viewBox="0 0 24 24" fill="none" xmlns="http://www.w3.org/2000/svg">
<path d="M8.44491 1.72664C7.72692 1.08786 6.68821 1.94611 6.58558 2.90163C6.13035 7.13963 0 10.0481 0 15C0 18.3822 1.9066 20.8112 3.57026 22.2868C4.28768 22.9232 5.32816 22.0675 5.43642 21.1147C5.91542 16.8989 12 13.9499 12 9C12 5.62803 10.105 3.20358 8.44491 1.72664ZM17.4449 10.7266C16.7269 10.0879 15.6882 10.9461 15.5856 11.9016C15.1617 15.8474 9.81845 18.6407 9.08357 23.0037C8.99184 23.5483 9.44772 24 10 24H18C19.2 24 21 22.5 21 18C21 14.628 19.105 12.2036 17.4449 10.7266Z" />
</svg>
