<svg width="24" height="24" viewBox="0 0 24 24" fill="none" xmlns="http://www.w3.org/2000/svg">
<g clip-path="url(#clip0_507_14938)">
<path d="M1 0C0.447715 0 0 0.447715 0 1V23C0 23.5523 0.447715 24 1 24H2C2.55228 24 3 23.5523 3 23V1C3 0.447716 2.55228 0 2 0H1ZM6 0V11C6 11.5523 6.44772 12 7 12H11C11.5523 12 12 12.4477 12 13V14C12 14.5523 12.4477 15 13 15H21.5597C22.4543 15 22.8988 13.9153 22.2615 13.2876L18.7125 9.79182C18.319 9.40423 18.3143 8.77102 18.7019 8.37757L22.3233 4.70182C22.9461 4.06974 22.4983 3 21.611 3H16C15.4477 3 15 2.55228 15 2V1C15 0.447715 14.5523 0 14 0H6C6 0 6 0 6 0V0Z" />
</g>
<defs>
<clipPath id="clip0_507_14938">
<rect width="24" height="24" rx="2" />
</clipPath>
</defs>
</svg>
